<svg width="72" height="64" viewBox="0 0 72 64" fill="none" xmlns="http://www.w3.org/2000/svg">
<path opacity="0.4" d="M46.75 63.5557C60.5571 63.5557 71.75 52.3628 71.75 38.5557C71.75 24.7485 60.5571 13.5557 46.75 13.5557C32.9429 13.5557 21.75 24.7485 21.75 38.5557C21.75 52.3628 32.9429 63.5557 46.75 63.5557Z" fill="#5BA5FF"/>
<path d="M33.75 38.9392V49.9392C33.75 50.2044 33.6446 50.4588 33.4571 50.6463C33.2696 50.8338 33.0152 50.9392 32.75 50.9392H24.75C24.4848 50.9392 24.2304 50.8338 24.0429 50.6463C23.8554 50.4588 23.75 50.2044 23.75 49.9392V38.9392C22.9544 38.9392 22.1913 38.6231 21.6287 38.0605C21.0661 37.4979 20.75 36.7349 20.75 35.9392V28.9392C20.75 27.8783 21.1714 26.8609 21.9216 26.1108C22.6717 25.3606 23.6891 24.9392 24.75 24.9392L28.75 28.9392L32.75 24.9392C33.8109 24.9392 34.8283 25.3606 35.5784 26.1108C36.3286 26.8609 36.75 27.8783 36.75 28.9392V35.9392C36.75 36.7349 36.4339 37.4979 35.8713 38.0605C35.3087 38.6231 34.5456 38.9392 33.75 38.9392Z" stroke="#414155" stroke-width="2" stroke-linejoin="round"/>
<path d="M20.96 27.7292L19.75 28.9392L15.75 24.9392C14.6891 24.9392 13.6717 25.3606 12.9216 26.1108C12.1714 26.8609 11.75 27.8783 11.75 28.9392V35.9392C11.75 36.7349 12.0661 37.4979 12.6287 38.0605C13.1913 38.6231 13.9544 38.9392 14.75 38.9392V49.9392C14.75 50.2044 14.8554 50.4588 15.0429 50.6463C15.2304 50.8338 15.4848 50.9392 15.75 50.9392H22.75C23.0152 50.9392 23.2696 50.8338 23.4571 50.6463C23.6446 50.4588 23.75 50.2044 23.75 49.9392" stroke="#414155" stroke-width="2" stroke-linejoin="round"/>
<path d="M36.54 27.7292L37.75 28.9392L41.75 24.9392C42.8109 24.9392 43.8283 25.3606 44.5784 26.1108C45.3286 26.8609 45.75 27.8783 45.75 28.9392V35.9392C45.75 36.7349 45.4339 37.4979 44.8713 38.0605C44.3087 38.6231 43.5456 38.9392 42.75 38.9392V49.9392C42.75 50.2044 42.6446 50.4588 42.4571 50.6463C42.2696 50.8338 42.0152 50.9392 41.75 50.9392H34.75C34.4848 50.9392 34.2304 50.8338 34.0429 50.6463C33.8554 50.4588 33.75 50.2044 33.75 49.9392" stroke="#414155" stroke-width="2" stroke-linejoin="round"/>
<path d="M11.75 34.9393H8.75C6.89348 34.9393 5.11302 34.2018 3.80026 32.889C2.48751 31.5763 1.75 29.7958 1.75 27.9393C1.75 26.0828 2.48751 24.3023 3.80026 22.9895C5.11302 21.6768 6.89348 20.9393 8.75 20.9393C9.17289 20.9386 9.59486 20.9788 10.01 21.0593C9.84177 20.365 9.75452 19.6536 9.75 18.9393C9.75 16.5523 10.6982 14.2632 12.386 12.5753C14.0739 10.8875 16.3631 9.93928 18.75 9.93928C20.6237 9.93455 22.4508 10.5226 23.97 11.6193C24.5626 8.43837 26.32 5.59278 28.8989 3.63865C31.4778 1.68453 34.6927 0.762341 37.9153 1.05235C41.1379 1.34236 44.1366 2.8237 46.3251 5.20686C48.5137 7.59002 49.7349 10.7037 49.75 13.9393C49.7435 14.5351 49.6967 15.1298 49.61 15.7193C51.7383 16.613 53.4919 18.2156 54.5732 20.255C55.6544 22.2944 55.9969 24.6452 55.5424 26.9083C55.0878 29.1715 53.8644 31.2077 52.0795 32.6715C50.2946 34.1353 48.0583 34.9365 45.75 34.9393" stroke="#414155" stroke-width="2" stroke-linejoin="round"/>
<path d="M18.75 22.9392C20.9591 22.9392 22.75 21.1483 22.75 18.9392C22.75 16.7301 20.9591 14.9392 18.75 14.9392C16.5409 14.9392 14.75 16.7301 14.75 18.9392C14.75 21.1483 16.5409 22.9392 18.75 22.9392Z" stroke="#414155" stroke-width="2" stroke-linejoin="round"/>
<path d="M28.75 22.9392C30.9591 22.9392 32.75 21.1483 32.75 18.9392C32.75 16.7301 30.9591 14.9392 28.75 14.9392C26.5409 14.9392 24.75 16.7301 24.75 18.9392C24.75 21.1483 26.5409 22.9392 28.75 22.9392Z" stroke="#414155" stroke-width="2" stroke-linejoin="round"/>
<path d="M38.75 22.9392C40.9591 22.9392 42.75 21.1483 42.75 18.9392C42.75 16.7301 40.9591 14.9392 38.75 14.9392C36.5409 14.9392 34.75 16.7301 34.75 18.9392C34.75 21.1483 36.5409 22.9392 38.75 22.9392Z" stroke="#414155" stroke-width="2" stroke-linejoin="round"/>
</svg>
