<svg width="72" height="64" viewBox="0 0 72 64" fill="none" xmlns="http://www.w3.org/2000/svg">
<path opacity="0.4" d="M46.5 63.5557C60.3071 63.5557 71.5 52.3628 71.5 38.5557C71.5 24.7485 60.3071 13.5557 46.5 13.5557C32.6929 13.5557 21.5 24.7485 21.5 38.5557C21.5 52.3628 32.6929 63.5557 46.5 63.5557Z" fill="#59D172"/>
<path d="M41.5 32H3.5" stroke="#414155" stroke-width="2" stroke-linejoin="round"/>
<path d="M22.5 23V51" stroke="#414155" stroke-width="2" stroke-linejoin="round"/>
<path d="M35.5 18.17C38.2782 20.7765 40.2087 24.1579 41.041 27.8753C41.8733 31.5927 41.5689 35.4745 40.1674 39.0167C38.7658 42.559 36.3319 45.5982 33.1814 47.7397C30.0309 49.8813 26.3094 51.0265 22.5 51.0265C18.6906 51.0265 14.9691 49.8813 11.8186 47.7397C8.66814 45.5982 6.23418 42.559 4.83265 39.0167C3.43111 35.4745 3.12673 31.5927 3.95902 27.8753C4.79131 24.1579 6.72184 20.7765 9.50001 18.17" stroke="#414155" stroke-width="2" stroke-linejoin="round"/>
<path d="M41.5 19C42.6046 19 43.5 18.1046 43.5 17C43.5 15.8954 42.6046 15 41.5 15C40.3954 15 39.5 15.8954 39.5 17C39.5 18.1046 40.3954 19 41.5 19Z" stroke="#414155" stroke-width="2" stroke-linejoin="round"/>
<path d="M13.65 20.75C12.1925 24.3198 11.4616 28.1444 11.5 32C11.5 42.49 16.42 51 22.5 51C28.58 51 33.5 42.49 33.5 32C33.5383 28.1444 32.8074 24.3198 31.35 20.75" stroke="#414155" stroke-width="2" stroke-linejoin="round"/>
<path d="M43.5 9L22.5 17L1.5 9L22.5 1L43.5 9Z" stroke="#414155" stroke-width="2" stroke-linejoin="round"/>
<path d="M41.5 15V9.76001" stroke="#414155" stroke-width="2" stroke-linejoin="round"/>
<path d="M9.5 12.05V18.17C9.5 18.17 15.32 23 22.5 23C29.68 23 35.5 18.17 35.5 18.17V12.05" stroke="#414155" stroke-width="2" stroke-linejoin="round"/>
<path d="M35.9902 45.38C32.0643 42.5338 27.3393 41.0012 22.4902 41.0012C17.6412 41.0012 12.9161 42.5338 8.99023 45.38" stroke="#414155" stroke-width="2" stroke-linejoin="round"/>
</svg>
