<svg width="112" height="66" viewBox="0 0 112 66" fill="none" xmlns="http://www.w3.org/2000/svg">
<circle cx="45" cy="45" r="19" fill="#A2D8A1"/>
<path d="M11.8262 39.4412H26.3044" stroke="#455A64" stroke-width="1.6087" stroke-linecap="round" stroke-linejoin="round"/>
<path d="M11.8262 42.6584H23.087" stroke="#455A64" stroke-width="1.6087" stroke-linecap="round" stroke-linejoin="round"/>
<path d="M11.8262 45.876H20.674" stroke="#455A64" stroke-width="1.6087" stroke-linecap="round" stroke-linejoin="round"/>
<path d="M26.3047 29.7891H32.7395" stroke="#455A64" stroke-width="1.6087" stroke-linecap="round" stroke-linejoin="round"/>
<path d="M11.8262 50.7019H18.261" stroke="#455A64" stroke-width="1.6087" stroke-linecap="round" stroke-linejoin="round"/>
<path d="M26.3047 33.0063H31.1308" stroke="#455A64" stroke-width="1.6087" stroke-linecap="round" stroke-linejoin="round"/>
<path d="M29.5215 20.1367V23.3541C29.5215 24.2389 30.2454 24.9628 31.1302 24.9628H34.3476" stroke="#455A64" stroke-width="1.6087" stroke-linecap="round" stroke-linejoin="round"/>
<path d="M23.4894 45.8758L40.7024 28.6628C41.3459 28.0193 42.3111 28.0193 42.9546 28.6628L43.5176 29.2258C44.1611 29.8693 44.1611 30.8345 43.5176 31.478L26.3046 48.691L21.4785 50.7019L23.4894 45.8758Z" stroke="#455A64" stroke-width="1.6087" stroke-linejoin="round"/>
<path d="M33.8652 35.5L36.6805 38.3152" stroke="#455A64" stroke-width="1.6087" stroke-linejoin="round"/>
<path d="M37.5652 31.8V24.4C37.5652 23.7565 37.3239 23.113 36.8413 22.7109L31.8543 17.7239C31.3717 17.2413 30.8087 17 30.1652 17H9.41304C8.04565 17 7 18.0457 7 19.413V54.8044C7 56.1717 8.04565 57.2174 9.41304 57.2174H35.1522C36.5196 57.2174 37.5652 56.1717 37.5652 54.8044V37.5109" stroke="#455A64" stroke-width="1.6087" stroke-linejoin="round"/>
<rect x="11.8258" y="23.3542" width="9.65218" height="10.4565" rx="1.6087" stroke="#455A64" stroke-width="1.6087"/>
</svg>
