<svg width="112" height="66" viewBox="0 0 112 66" fill="none" xmlns="http://www.w3.org/2000/svg">
<circle cx="45" cy="45" r="19" fill="#F2C775"/>
<path d="M14.9565 40.7388V31.1519C14.9565 30.4214 15.5957 29.7823 16.3261 29.7823H24.087C25.0913 29.7823 25.913 28.9606 25.913 27.9562C25.913 26.9519 25.0913 26.1301 24.087 26.1301H7.65217C5.64348 26.1301 4 27.7736 4 29.7823V37.0866C4 38.091 4.82174 38.9127 5.82609 38.9127C6.83043 38.9127 7.65217 38.091 7.65217 37.0866V31.6084" stroke="#455A64" stroke-width="1.5" stroke-linecap="round" stroke-linejoin="round"/>
<path d="M7.65137 37.0869V44.3913" stroke="#455A64" stroke-width="1.5" stroke-linecap="round" stroke-linejoin="round"/>
<path d="M40.5219 31.6086H27.7393" stroke="#455A64" stroke-width="1.5" stroke-linecap="round" stroke-linejoin="round"/>
<path d="M40.522 27.9565H29.5654" stroke="#455A64" stroke-width="1.5" stroke-linecap="round" stroke-linejoin="round"/>
<path d="M40.5221 24.3044H33.2178" stroke="#455A64" stroke-width="1.5" stroke-linecap="round" stroke-linejoin="round"/>
<path d="M18.6084 29.7824V35.2607C18.6084 36.2651 19.4301 37.0868 20.4345 37.0868H44.1736C45.178 37.0868 45.9997 36.2651 45.9997 35.2607V20.652C45.9997 19.6477 45.178 18.8259 44.1736 18.8259H20.4345C19.4301 18.8259 18.6084 19.6477 18.6084 20.652V26.1303" stroke="#455A64" stroke-width="1.5" stroke-linejoin="round"/>
<path d="M29.5652 22.478L25.3652 26.678" stroke="#455A64" stroke-width="1.5" stroke-linecap="round" stroke-linejoin="round"/>
<path d="M11.3035 24.3043C13.3206 24.3043 14.9557 22.6692 14.9557 20.6522C14.9557 18.6351 13.3206 17 11.3035 17C9.2865 17 7.65137 18.6351 7.65137 20.6522C7.65137 22.6692 9.2865 24.3043 11.3035 24.3043Z" stroke="#455A64" stroke-width="1.5" stroke-linejoin="round"/>
<path d="M15.869 51.6957C17.886 51.6957 19.5211 50.0606 19.5211 48.0435C19.5211 46.0265 17.886 44.3914 15.869 44.3914C13.8519 44.3914 12.2168 46.0265 12.2168 48.0435C12.2168 50.0606 13.8519 51.6957 15.869 51.6957Z" stroke="#455A64" stroke-width="1.5" stroke-linejoin="round"/>
<path d="M7.65217 58.9999C9.66921 58.9999 11.3043 57.3648 11.3043 55.3477C11.3043 53.3307 9.66921 51.6956 7.65217 51.6956C5.63513 51.6956 4 53.3307 4 55.3477C4 57.3648 5.63513 58.9999 7.65217 58.9999Z" stroke="#455A64" stroke-width="1.5" stroke-linejoin="round"/>
<path d="M24.9989 58.9999C27.0159 58.9999 28.651 57.3648 28.651 55.3477C28.651 53.3307 27.0159 51.6956 24.9989 51.6956C22.9818 51.6956 21.3467 53.3307 21.3467 55.3477C21.3467 57.3648 22.9818 58.9999 24.9989 58.9999Z" stroke="#455A64" stroke-width="1.5" stroke-linejoin="round"/>
<path d="M42.3485 58.9999C44.3655 58.9999 46.0006 57.3648 46.0006 55.3477C46.0006 53.3307 44.3655 51.6956 42.3485 51.6956C40.3314 51.6956 38.6963 53.3307 38.6963 55.3477C38.6963 57.3648 40.3314 58.9999 42.3485 58.9999Z" stroke="#455A64" stroke-width="1.5" stroke-linejoin="round"/>
<path d="M34.1297 51.6957C36.1468 51.6957 37.7819 50.0606 37.7819 48.0435C37.7819 46.0265 36.1468 44.3914 34.1297 44.3914C32.1127 44.3914 30.4775 46.0265 30.4775 48.0435C30.4775 50.0606 32.1127 51.6957 34.1297 51.6957Z" stroke="#455A64" stroke-width="1.5" stroke-linejoin="round"/>
</svg>
