<svg width="112" height="66" viewBox="0 0 112 66" fill="none" xmlns="http://www.w3.org/2000/svg">
<circle cx="45" cy="44.9999" r="19" fill="#F27979"/>
<path d="M41.2046 17H13.0425C9.17019 17 6.00195 20.1682 6.00195 24.0405V27.5608H48.2451V24.0405C48.2451 20.1682 45.0768 17 41.2046 17Z" stroke="#455A64" stroke-width="1.5" stroke-miterlimit="10" stroke-linecap="round" stroke-linejoin="round"/>
<path d="M6 48.6824C6 52.5546 9.16823 55.7229 13.0405 55.7229H41.2026C45.0749 55.7229 48.2431 52.5546 48.2431 48.6824V27.5608H6V48.6824Z" stroke="#455A64" stroke-width="1.5" stroke-miterlimit="10" stroke-linecap="round" stroke-linejoin="round"/>
<path d="M20.9612 22.7205C20.6972 22.7205 20.5212 22.5445 20.5212 22.2805C20.5212 22.0165 20.6972 21.8405 20.9612 21.8405C21.2252 21.8405 21.4012 22.0165 21.4012 22.2805C21.4012 22.5445 21.2252 22.7205 20.9612 22.7205ZM17.0009 22.7205C16.7369 22.7205 16.5609 22.5445 16.5609 22.2805C16.5609 22.0165 16.7369 21.8405 17.0009 21.8405C17.2649 21.8405 17.4409 22.0165 17.4409 22.2805C17.4409 22.5445 17.2649 22.7205 17.0009 22.7205ZM13.0406 22.7205C12.7766 22.7205 12.6006 22.5445 12.6006 22.2805C12.6006 22.0165 12.7766 21.8405 13.0406 21.8405C13.3046 21.8405 13.4807 22.0165 13.4807 22.2805C13.4807 22.5445 13.3046 22.7205 13.0406 22.7205Z" stroke="#455A64" stroke-width="1.5" stroke-miterlimit="10" stroke-linecap="round" stroke-linejoin="round"/>
<path d="M26.6808 45.1622C28.382 45.1622 29.761 43.7831 29.761 42.0819C29.761 40.3808 28.382 39.0017 26.6808 39.0017C24.9797 39.0017 23.6006 40.3808 23.6006 42.0819C23.6006 43.7831 24.9797 45.1622 26.6808 45.1622Z" stroke="#455A64" stroke-width="1.5" stroke-linejoin="round"/>
<path d="M34.9777 43.103C35.0415 42.7839 35.0416 42.4647 35.0416 42.0818C35.0416 41.6989 35.0415 41.3798 34.9777 41.0607L32.744 40.7416C32.6163 40.0395 32.2972 39.3375 31.9143 38.7631L33.2545 36.9123C32.8716 36.4017 32.361 35.8911 31.8505 35.5082L29.9997 36.8484C29.4253 36.4655 28.7232 36.2102 28.0212 36.0188L27.7021 33.785C27.383 33.7212 27.0639 33.7212 26.6809 33.7212C26.3618 33.7212 25.9789 33.7212 25.6598 33.785L25.3407 36.0188C24.6386 36.1464 23.9366 36.4655 23.3622 36.8484L21.5114 35.5082C21.0008 35.955 20.4902 36.4017 20.1073 36.9123L21.4476 38.7631C21.0646 39.3375 20.8093 40.0395 20.6179 40.7416L18.3841 41.0607C18.3203 41.3798 18.3203 41.6989 18.3203 42.0818C18.3203 42.4647 18.3203 42.7839 18.3841 43.103L20.6179 43.4221C20.7455 44.1241 21.0646 44.8261 21.4476 45.4005L20.1073 47.2514C20.4902 47.7619 21.0008 48.2725 21.5114 48.6554L23.3622 47.3152C23.9366 47.6981 24.6386 47.9534 25.3407 48.1449L25.6598 50.3786C25.9789 50.4424 26.298 50.4424 26.6809 50.4424C27 50.4424 27.383 50.4424 27.7021 50.3786L28.0212 48.1449C28.7232 48.0172 29.4253 47.6981 29.9997 47.3152L31.8505 48.6554C32.361 48.2087 32.8716 47.7619 33.2545 47.2514L31.9143 45.4005C32.2972 44.8261 32.5525 44.1241 32.744 43.4221L34.9777 43.103Z" stroke="#455A64" stroke-width="1.5" stroke-linejoin="round"/>
</svg>
