<svg width="112" height="66" viewBox="0 0 112 66" fill="none" xmlns="http://www.w3.org/2000/svg">
<circle cx="45" cy="44.9999" r="19" fill="#70CCFE"/>
<path d="M41.2311 53.5252H6.73739C6.32773 53.5252 6 53.1975 6 52.7878V18.2941C6 17.6386 6.81931 17.229 7.31091 17.7206L41.8046 52.2143C42.2962 52.6239 41.8866 53.5252 41.2311 53.5252Z" stroke="#455A64" stroke-width="1.5" stroke-miterlimit="10" stroke-linecap="round" stroke-linejoin="round"/>
<path d="M12.1445 46.5609V33.1239C12.1445 32.4685 12.9638 32.0588 13.4554 32.5504L26.8105 45.9054C27.3021 46.397 26.9744 47.2164 26.237 47.2164H12.8819C12.4723 47.2983 12.1445 46.9706 12.1445 46.5609Z" stroke="#455A64" stroke-width="1.5" stroke-miterlimit="10" stroke-linecap="round" stroke-linejoin="round"/>
<path d="M11.3558 21.7473L9.73242 23.3683L9.79032 23.4263L11.4136 21.8052L11.3558 21.7473Z" stroke="#455A64" stroke-width="1.5" stroke-miterlimit="10" stroke-linecap="round" stroke-linejoin="round"/>
<path d="M15.739 26.1867L14.1191 27.8112L14.1772 27.869L15.797 26.2446L15.739 26.1867Z" stroke="#455A64" stroke-width="1.5" stroke-miterlimit="10" stroke-linecap="round" stroke-linejoin="round"/>
<path d="M20.1261 30.5031L18.5039 32.1252L18.5618 32.1832L20.184 30.561L20.1261 30.5031Z" stroke="#455A64" stroke-width="1.5" stroke-miterlimit="10" stroke-linecap="round" stroke-linejoin="round"/>
<path d="M24.4532 34.8803L22.8311 36.5024L22.889 36.5604L24.5112 34.9382L24.4532 34.8803Z" stroke="#455A64" stroke-width="1.5" stroke-miterlimit="10" stroke-linecap="round" stroke-linejoin="round"/>
<path d="M28.8421 39.3147L27.2188 40.9357L27.2766 40.9936L28.9 39.3726L28.8421 39.3147Z" stroke="#455A64" stroke-width="1.5" stroke-miterlimit="10" stroke-linecap="round" stroke-linejoin="round"/>
<path d="M33.2253 43.6384L31.6055 45.2628L31.6635 45.3207L33.2834 43.6962L33.2253 43.6384Z" stroke="#455A64" stroke-width="1.5" stroke-miterlimit="10" stroke-linecap="round" stroke-linejoin="round"/>
<path d="M37.6075 48.0989L35.9854 49.7211L36.0433 49.779L37.6655 48.1568L37.6075 48.0989Z" stroke="#455A64" stroke-width="1.5" stroke-miterlimit="10" stroke-linecap="round" stroke-linejoin="round"/>
<path d="M24.167 18.332L19.5322 22.9668L37.6078 41.0424L42.2426 36.4076L24.167 18.332Z" stroke="#455A64" stroke-width="1.5" stroke-miterlimit="10" stroke-linecap="round" stroke-linejoin="round"/>
<path d="M17.2256 16L19.5197 22.9643L24.1899 18.376L17.2256 16Z" stroke="#455A64" stroke-width="1.5" stroke-miterlimit="10" stroke-linecap="round" stroke-linejoin="round"/>
<path d="M42.2142 36.4014L44.5084 38.6955C45.1638 39.3509 45.1638 40.4161 44.5084 40.9896L42.2142 43.2837C41.5588 43.9392 40.4936 43.9392 39.9201 43.2837L37.626 40.9896L42.2142 36.4014Z" stroke="#455A64" stroke-width="1.5" stroke-miterlimit="10" stroke-linecap="round" stroke-linejoin="round"/>
</svg>
