<svg width="112" height="66" viewBox="0 0 112 66" fill="none" xmlns="http://www.w3.org/2000/svg">
<circle cx="45" cy="45" r="19" fill="#C97DB2"/>
<path d="M14.6 48.9199H7V54.9999H14.6V48.9199Z" stroke="#455A64" stroke-width="1.52" stroke-linejoin="round"/>
<path d="M45.0004 48.9199H37.4004V54.9999H45.0004V48.9199Z" stroke="#455A64" stroke-width="1.52" stroke-linejoin="round"/>
<path d="M17.6396 55H34.3596" stroke="#455A64" stroke-width="1.52" stroke-linecap="round" stroke-linejoin="round"/>
<path d="M20.6797 51.96H31.3197" stroke="#455A64" stroke-width="1.52" stroke-linecap="round" stroke-linejoin="round"/>
<path d="M14.5996 48.9199H37.3996" stroke="#455A64" stroke-width="1.52" stroke-linejoin="round"/>
<path d="M10.04 35.24V45.88" stroke="#455A64" stroke-width="1.52" stroke-linecap="round" stroke-linejoin="round"/>
<path d="M13.0801 35.24V45.88" stroke="#455A64" stroke-width="1.52" stroke-linecap="round" stroke-linejoin="round"/>
<path d="M19.1602 35.24V45.88" stroke="#455A64" stroke-width="1.52" stroke-linecap="round" stroke-linejoin="round"/>
<path d="M22.2002 35.24V45.88" stroke="#455A64" stroke-width="1.52" stroke-linecap="round" stroke-linejoin="round"/>
<path d="M41.96 35.24V45.88" stroke="#455A64" stroke-width="1.52" stroke-linecap="round" stroke-linejoin="round"/>
<path d="M38.9199 35.24V45.88" stroke="#455A64" stroke-width="1.52" stroke-linecap="round" stroke-linejoin="round"/>
<path d="M32.8398 35.24V45.88" stroke="#455A64" stroke-width="1.52" stroke-linecap="round" stroke-linejoin="round"/>
<path d="M29.7998 35.24V45.88" stroke="#455A64" stroke-width="1.52" stroke-linecap="round" stroke-linejoin="round"/>
<path d="M45 29.16V32.2H7V29.16L26 17L45 29.16Z" stroke="#455A64" stroke-width="1.52" stroke-linejoin="round"/>
<path d="M7 29.1599H45" stroke="#455A64" stroke-width="1.52" stroke-linejoin="round"/>
<path d="M34.5881 26.12L26.0001 20.572L17.4121 26.12" stroke="#455A64" stroke-width="1.52" stroke-linecap="round" stroke-linejoin="round"/>
</svg>
