<svg width="112" height="66" viewBox="0 0 112 66" fill="none" xmlns="http://www.w3.org/2000/svg">
<circle cx="45" cy="45" r="19" fill="#74B625"/>
<path d="M24.2002 59.5633V54.0542" stroke="#455A64" stroke-width="1.5" stroke-linecap="round" stroke-linejoin="round"/>
<path d="M37.0556 59.5637H20.5283" stroke="#455A64" stroke-width="1.5" stroke-linecap="round" stroke-linejoin="round"/>
<path d="M33.3828 54.0542V59.5633" stroke="#455A64" stroke-width="1.5" stroke-linecap="round" stroke-linejoin="round"/>
<path d="M5.83637 21C4.82636 21 4 21.8264 4 22.8364V52.2182C4 53.2282 4.82636 54.0546 5.83637 54.0546H51.7455C52.7555 54.0546 53.5819 53.2282 53.5819 52.2182V22.8364C53.5819 21.8264 52.7555 21 51.7455 21H5.83637Z" stroke="#455A64" stroke-width="1.5" stroke-linecap="round" stroke-linejoin="round"/>
<path d="M26.9541 50.3818H30.6268" stroke="#455A64" stroke-width="1.5" stroke-linecap="round" stroke-linejoin="round"/>
<path d="M15.0175 32.0183C17.0459 32.0183 18.6902 30.374 18.6902 28.3456C18.6902 26.3172 17.0459 24.6729 15.0175 24.6729C12.9891 24.6729 11.3447 26.3172 11.3447 28.3456C11.3447 30.374 12.9891 32.0183 15.0175 32.0183Z" stroke="#455A64" stroke-width="1.5" stroke-linejoin="round"/>
<path d="M18.6901 48.5452V38.9043C18.6901 38.1697 19.3328 37.527 20.0673 37.527H27.8719C28.8819 37.527 29.7083 36.7006 29.7083 35.6906C29.7083 34.6806 28.8819 33.8542 27.8719 33.8542H11.3446C9.3246 33.8542 7.67188 35.507 7.67188 37.527V44.8724C7.67188 45.8824 8.49824 46.7088 9.50824 46.7088C10.5182 46.7088 11.3446 45.8824 11.3446 44.8724V39.3633" stroke="#455A64" stroke-width="1.5" stroke-linecap="round" stroke-linejoin="round"/>
<path d="M11.3447 44.8728V48.5455" stroke="#455A64" stroke-width="1.5" stroke-linecap="round" stroke-linejoin="round"/>
<path d="M33.3828 39.3635V32.0181L40.7283 35.6908L33.3828 39.3635Z" stroke="#455A64" stroke-width="1.5" stroke-linejoin="round"/>
<path d="M24.2002 33.8545V28.3454C24.2002 27.3354 25.0266 26.509 26.0366 26.509H46.2366C47.2466 26.509 48.073 27.3354 48.073 28.3454V43.0363C48.073 44.0463 47.2466 44.8727 46.2366 44.8727H26.0366C25.0266 44.8727 24.2002 44.0463 24.2002 43.0363V37.5272" stroke="#455A64" stroke-width="1.5" stroke-linejoin="round"/>
</svg>
