<svg width="112" height="66" viewBox="0 0 112 66" fill="none" xmlns="http://www.w3.org/2000/svg">
<circle cx="45" cy="44.9999" r="19" fill="#4EA5B0"/>
<path d="M14.5002 25.6C16.875 25.6 18.8002 23.6748 18.8002 21.3C18.8002 18.9252 16.875 17 14.5002 17C12.1254 17 10.2002 18.9252 10.2002 21.3C10.2002 23.6748 12.1254 25.6 14.5002 25.6Z" stroke="#455A64" stroke-width="1.5" stroke-linecap="round" stroke-linejoin="round"/>
<path d="M32.5607 27.3201C34.9355 27.3201 36.8607 25.3949 36.8607 23.0201C36.8607 20.6453 34.9355 18.7201 32.5607 18.7201C30.1859 18.7201 28.2607 20.6453 28.2607 23.0201C28.2607 25.3949 30.1859 27.3201 32.5607 27.3201Z" stroke="#455A64" stroke-width="1.5" stroke-linecap="round" stroke-linejoin="round"/>
<path d="M9.33984 34.2V59.9998H19.6598" stroke="#455A64" stroke-width="1.5" stroke-linecap="round" stroke-linejoin="round"/>
<path d="M23.1001 41.0799C25 41.0799 26.5401 39.5398 26.5401 37.6399C26.5401 35.7401 25 34.2 23.1001 34.2C21.2003 34.2 19.6602 35.7401 19.6602 37.6399C19.6602 39.5398 21.2003 41.0799 23.1001 41.0799Z" stroke="#455A64" stroke-width="1.5" stroke-linejoin="round"/>
<path d="M26.5407 60.0001V48.5622L27.6587 51.4001C27.9167 52.0881 28.7767 52.4321 29.4647 52.1741C30.2387 51.8301 30.5827 50.9701 30.2387 50.2821L27.9167 44.4342C27.4867 43.4022 26.7987 42.5422 25.7667 42.2842C24.9927 42.1122 24.0467 41.9402 23.0147 41.9402C21.9827 41.9402 21.0367 42.1122 20.2627 42.2842C19.2307 42.5422 18.4567 43.4022 18.1127 44.4342L15.7907 50.2821C15.5327 51.0561 15.8767 51.9161 16.5647 52.1741C17.2527 52.5181 18.1127 52.1741 18.3707 51.4001L19.4887 48.5622V60.0001H26.5407Z" stroke="#455A64" stroke-width="1.5" stroke-linejoin="round"/>
<path d="M36.86 36.5222L41.762 54.8401H35.14V60.0001H29.98V54.8401H26.54" stroke="#455A64" stroke-width="1.5" stroke-linecap="round" stroke-linejoin="round"/>
<path d="M38.666 43.23C38.924 44.176 39.87 44.692 40.73 44.434C41.676 44.176 42.192 43.23 41.934 42.37L39.01 31.4481C38.666 30.0721 37.376 29.1261 36 29.1261L32.56 32.5661L29.1201 29.1261C27.7441 29.1261 26.4541 30.0721 26.1101 31.4481L25.1641 34.9741" stroke="#455A64" stroke-width="1.5" stroke-linejoin="round"/>
<path d="M23.1003 34.2V30.9321C23.1003 29.6421 22.2403 28.4381 21.0363 28.0941L18.8003 27.3201L14.5004 31.6201L10.2004 27.3201L7.96438 28.0941C6.76038 28.5241 5.90039 29.6421 5.90039 30.9321V41.08C5.90039 42.972 7.44838 44.52 9.34038 44.52" stroke="#455A64" stroke-width="1.5" stroke-linejoin="round"/>
</svg>
